HIERARCHY
ROOT hip
{
  OFFSET 0 0 0
  CHANNELS 6 Xposition Yposition Zposition Zrotation Yrotation Xrotation
  JOINT abdomen
  {
    OFFSET 0 20.6881 -0.73152
    CHANNELS 3 Zrotation Xrotation Yrotation
    JOINT chest
    {
      OFFSET 0 11.7043 -0.48768
      CHANNELS 3 Zrotation Xrotation Yrotation
      JOINT neck
      {
        OFFSET 0 22.1894 -2.19456
        CHANNELS 3 Zrotation Xrotation Yrotation
        JOINT head
        {
          OFFSET -0.24384 7.07133 1.2192
          CHANNELS 3 Zrotation Xrotation Yrotation
          JOINT leftEye
          {
            OFFSET 4.14528 8.04674 8.04672
            CHANNELS 3 Zrotation Xrotation Yrotation
            End Site
            {
              OFFSET 1 0 0
            }
          }
          JOINT rightEye
          {
            OFFSET -3.6576 8.04674 8.04672
            CHANNELS 3 Zrotation Xrotation Yrotation
            End Site
            {
              OFFSET 1 0 0
            }
          }
        }
      }
      JOINT rCollar
      {
        OFFSET -2.68224 19.2634 -4.8768
        CHANNELS 3 Zrotation Xrotation Yrotation
        JOINT rShldr
        {
          OFFSET -8.77824 -1.95073 1.46304
          CHANNELS 3 Zrotation Xrotation Yrotation
          JOINT rForeArm
          {
            OFFSET -28.1742 -1.7115 0.48768
            CHANNELS 3 Zrotation Xrotation Yrotation
            JOINT rHand
            {
              OFFSET -22.5879 0.773209 7.07136
              CHANNELS 3 Zrotation Xrotation Yrotation
              JOINT rThumb1
              {
                OFFSET -1.2192 -0.487915 3.41376
                CHANNELS 3 Zrotation Xrotation Yrotation
                JOINT rThumb2
                {
                  OFFSET -3.37035 -0.52449 3.41376
                  CHANNELS 3 Zrotation Xrotation Yrotation
                  End Site
                  {
                    OFFSET -1.78271 -1.18214 1.43049
                  }
                }
              }
              JOINT rIndex1
              {
                OFFSET -7.75947 0.938293 5.60832
                CHANNELS 3 Zrotation Xrotation Yrotation
                JOINT rIndex2
                {
                  OFFSET -2.54057 -0.884171 1.56538
                  CHANNELS 3 Zrotation Xrotation Yrotation
                  End Site
                  {
                    OFFSET -1.62519 -0.234802 1.16502
                  }
                }
              }
              JOINT rMid1
              {
                OFFSET -8.24714 1.18213 3.41376
                CHANNELS 3 Zrotation Xrotation Yrotation
                JOINT rMid2
                {
                  OFFSET -3.10165 -0.590103 1.0647
                  CHANNELS 3 Zrotation Xrotation Yrotation
                  End Site
                  {
                    OFFSET -2.48547 -0.328903 0.83742
                  }
                }
              }
              JOINT rRing1
              {
                OFFSET -8.82822 0.546677 1.51678
                CHANNELS 3 Zrotation Xrotation Yrotation
                JOINT rRing2
                {
                  OFFSET -2.60934 -0.819778 -0.0198488
                  CHANNELS 3 Zrotation Xrotation Yrotation
                  End Site
                  {
                    OFFSET -2.33842 -0.294052 0.168128
                  }
                }
              }
              JOINT rPinky1
              {
                OFFSET -8.27202 -0.0477905 -0.4584
                CHANNELS 3 Zrotation Xrotation Yrotation
                JOINT rPinky2
                {
                  OFFSET -1.82734 -0.647385 -0.700984
                  CHANNELS 3 Zrotation Xrotation Yrotation
                  End Site
                  {
                    OFFSET -1.69225 -0.51767 -0.607171
                  }
                }
              }
            }
          }
        }
      }
      JOINT lCollar
      {
        OFFSET 2.68224 19.2634 -4.8768
        CHANNELS 3 Zrotation Xrotation Yrotation
        JOINT lShldr
        {
          OFFSET 8.77824 -1.95073 1.46304
          CHANNELS 3 Zrotation Xrotation Yrotation
          JOINT lForeArm
          {
            OFFSET 28.1742 -1.7115 0.48768
            CHANNELS 3 Zrotation Xrotation Yrotation
            JOINT lHand
            {
              OFFSET 22.5879 0.773209 7.07136
              CHANNELS 3 Zrotation Xrotation Yrotation
              JOINT lThumb1
              {
                OFFSET 1.2192 -0.487915 3.41376
                CHANNELS 3 Zrotation Xrotation Yrotation
                JOINT lThumb2
                {
                  OFFSET 3.37035 -0.52449 3.41376
                  CHANNELS 3 Zrotation Xrotation Yrotation
                  End Site
                  {
                    OFFSET 1.78271 -1.18214 1.43049
                  }
                }
              }
              JOINT lIndex1
              {
                OFFSET 7.75947 0.938293 5.60832
                CHANNELS 3 Zrotation Xrotation Yrotation
                JOINT lIndex2
                {
                  OFFSET 2.54057 -0.884171 1.56538
                  CHANNELS 3 Zrotation Xrotation Yrotation
                  End Site
                  {
                    OFFSET 1.62519 -0.234802 1.16502
                  }
                }
              }
              JOINT lMid1
              {
                OFFSET 8.24714 1.18213 3.41376
                CHANNELS 3 Zrotation Xrotation Yrotation
                JOINT lMid2
                {
                  OFFSET 3.10165 -0.590103 1.0647
                  CHANNELS 3 Zrotation Xrotation Yrotation
                  End Site
                  {
                    OFFSET 2.48547 -0.328903 0.83742
                  }
                }
              }
              JOINT lRing1
              {
                OFFSET 8.82822 0.546677 1.51678
                CHANNELS 3 Zrotation Xrotation Yrotation
                JOINT lRing2
                {
                  OFFSET 2.60934 -0.819778 -0.0198488
                  CHANNELS 3 Zrotation Xrotation Yrotation
                  End Site
                  {
                    OFFSET 2.33842 -0.294052 0.168128
                  }
                }
              }
              JOINT lPinky1
              {
                OFFSET 8.27202 -0.0477905 -0.4584
                CHANNELS 3 Zrotation Xrotation Yrotation
                JOINT lPinky2
                {
                  OFFSET 1.82734 -0.647385 -0.700984
                  CHANNELS 3 Zrotation Xrotation Yrotation
                  End Site
                  {
                    OFFSET 1.69225 -0.51767 -0.607171
                  }
                }
              }
            }
          }
        }
      }
    }
  }
  JOINT rButtock
  {
    OFFSET -8.77824 4.35084 1.2192
    CHANNELS 3 Zrotation Xrotation Yrotation
    JOINT rThigh
    {
      OFFSET 0 -1.70687 -2.19456
      CHANNELS 3 Zrotation Xrotation Yrotation
      JOINT rShin
      {
        OFFSET 0 -36.8199 0.73152
        CHANNELS 3 Zrotation Xrotation Yrotation
        JOINT rFoot
        {
          OFFSET 0.73152 -45.1104 -5.12064
          CHANNELS 3 Zrotation Xrotation Yrotation
          End Site
          {
            OFFSET -1.1221 -3.69964 12.103
          }
        }
      }
    }
  }
  JOINT lButtock
  {
    OFFSET 8.77824 4.35084 1.2192
    CHANNELS 3 Zrotation Xrotation Yrotation
    JOINT lThigh
    {
      OFFSET 0 -1.70687 -2.19456
      CHANNELS 3 Zrotation Xrotation Yrotation
      JOINT lShin
      {
        OFFSET 0 -36.8199 0.73152
        CHANNELS 3 Zrotation Xrotation Yrotation
        JOINT lFoot
        {
          OFFSET -0.73152 -45.1104 -5.12064
          CHANNELS 3 Zrotation Xrotation Yrotation
          End Site
          {
            OFFSET 1.1221 -3.69964 12.103
          }
        }
      }
    }
  }
}
MOTION
Frames:	4
Frame Time:	0.03333
45.54847822251538 73.05021872055286 -276.70619726710834 -149.7400665283203 79.09477233886719 -123.35443115234375 -1.432626485824585 17.66807746887207 -0.34165841341018677 5.782606601715088 -10.335027694702148 0.5290884971618652 -10.056497573852539 19.35618019104004 -14.188643455505371 14.056801795959473 -27.171634674072266 -24.180620193481445 0.2936249077320099 -0.01598464883863926 -0.14069679379463196 -0.050163645297288895 -0.16222791373729706 -0.30016160011291504 0.04448208585381508 0.27816081047058105 -0.2807355523109436 31.06111717224121 24.194461822509766 52.11518859863281 -24.09294319152832 -50.05131912231445 103.6972427368164 -0.5385257005691528 5.839455604553223 0.5870314836502075 0.27661681175231934 0.13550224900245667 0.20339751243591309 -0.14392876625061035 0.0761614516377449 0.027110431343317032 -0.29089006781578064 0.13798783719539642 0.20362086594104767 7.780092239379883 5.656782627105713 0.19017042219638824 -0.046237148344516754 0.1797291785478592 -0.1569940596818924 3.210191249847412 0.9847984910011292 -0.039973605424165726 -0.2405337542295456 0.1293950378894806 -0.16722355782985687 10.235682487487793 0.7690350413322449 0.06386873871088028 0.014649639837443829 -0.1303025484085083 0.23573200404644012 2.634460926055908 -0.44274282455444336 -0.18148493766784668 -0.13639496266841888 -0.04402980953454971 0.0033938405103981495 21.172618865966797 58.25874710083008 -104.69160461425781 27.916942596435547 -35.03111267089844 -75.60074615478516 5.871186256408691 -55.863956451416016 11.357245445251465 0.07431255280971527 -0.09271041303873062 0.03021346591413021 -0.022712066769599915 0.1735912710428238 0.006159688346087933 0.2171553075313568 0.04420047998428345 -0.04280714690685272 -7.466575622558594 5.671462059020996 -0.3668382167816162 0.031801771372556686 -0.04969111457467079 -0.0391322523355484 -2.645526170730591 0.8158474564552307 -0.18044251203536987 0.020007245242595673 -0.2180529236793518 -0.043739087879657745 -10.283638954162598 0.8496538996696472 -0.1598283350467682 -0.21373659372329712 -0.03931416571140289 0.16056621074676514 -2.0899641513824463 -0.42586788535118103 0.16853293776512146 0.20602646470069885 0.1304968148469925 -0.3491533398628235 -36.61629104614258 -44.26120376586914 -31.969640731811523 -0.47129568457603455 42.25996398925781 0.5576469302177429 -2.174509048461914 30.81417465209961 3.826453685760498 0.018813857808709145 -0.007981205359101295 -0.013465901836752892 22.68099021911621 -34.98122024536133 26.091812133789062 2.8348944187164307 71.46075439453125 -3.939500331878662 8.799647331237793 -16.463966369628906 18.21717071533203
46.34282335329404 72.82486345907746 -276.87494866985855 -153.2793731689453 78.631103515625 -127.25051879882812 -1.6904962062835693 16.942047119140625 -1.1886017322540283 6.204051971435547 -10.336262702941895 0.13702039420604706 -10.014232635498047 19.038585662841797 -14.332465171813965 13.589081764221191 -26.533370971679688 -24.55058479309082 0.312590628862381 0.0023119256366044283 -0.0663866400718689 0.018543187528848648 -0.14695172011852264 -0.25524449348449707 0.1209946945309639 0.16189007461071014 -0.23177115619182587 37.69035339355469 23.6729793548584 45.04133987426758 -23.7471866607666 -50.41081619262695 104.54837036132812 -0.770420253276825 20.09537696838379 2.7446370124816895 0.33164888620376587 0.1147514134645462 0.1847044974565506 -0.22740186750888824 0.05276855453848839 0.019408848136663437 -0.24121937155723572 0.24643689393997192 0.17947539687156677 7.7295427322387695 5.582416534423828 0.22867341339588165 0.039655089378356934 0.08988633006811142 -0.043608035892248154 3.131413459777832 1.0534156560897827 0.1005110964179039 -0.1885574758052826 0.1616612821817398 -0.1556529700756073 10.296982765197754 0.7120336294174194 0.024606619030237198 0.015340244397521019 -0.1735481172800064 0.21832434833049774 2.551496744155884 -0.4587620794773102 -0.17004325985908508 -0.1532709151506424 -0.010324718430638313 0.05321424454450607 22.747821807861328 61.456329345703125 -105.10752868652344 27.872089385986328 -37.11751174926758 -79.11949920654297 8.1067533493042 -60.87211227416992 13.833141326904297 0.07265403866767883 -0.05916927382349968 -0.011471527628600597 0.021608462557196617 0.12655532360076904 -0.0010164552368223667 0.1871241331100464 0.1474686712026596 -0.07756651937961578 -7.434848308563232 5.72195291519165 -0.2824946939945221 0.012039066292345524 -0.034370291978120804 -0.14141279458999634 -2.685659408569336 0.8546841144561768 -0.18147365748882294 -0.03050754964351654 -0.21691060066223145 -0.034858010709285736 -10.364068984985352 0.9101547598838806 -0.1214957907795906 -0.2095554918050766 -0.042790643870830536 0.20602528750896454 -2.162018060684204 -0.45412102341651917 0.2378288060426712 0.1348605751991272 0.06501900404691696 -0.30785757303237915 -36.30276107788086 -43.219818115234375 -30.901792526245117 -0.22050148248672485 40.43883514404297 0.11615930497646332 -2.5942251682281494 32.30223846435547 3.650235652923584 -0.07601473480463028 -0.03273438662290573 -0.01976921036839485 23.030364990234375 -33.93658447265625 27.00678253173828 3.002918004989624 71.8178939819336 -4.176986217498779 9.72106647491455 -17.39308738708496 18.345829010009766
47.06698274082213 72.47758249072817 -277.01733404830867 -156.07481384277344 78.21958923339844 -130.84136962890625 -1.803394079208374 16.372827529907227 -1.860429048538208 6.52860164642334 -10.411771774291992 -0.16295002400875092 -10.035725593566895 18.637239456176758 -14.243938446044922 13.26750659942627 -25.985563278198242 -24.53005027770996 0.31119418144226074 0.009244375862181187 0.006208689883351326 0.08129213005304337 -0.1447005718946457 -0.23890471458435059 0.13148964941501617 0.04697209224104881 -0.15993212163448334 43.66127395629883 21.908191680908203 39.01397705078125 -23.686412811279297 -50.325618743896484 104.39112091064453 -1.2518643140792847 30.248382568359375 4.4915008544921875 0.30433252453804016 0.06605365872383118 0.16405393183231354 -0.2930352985858917 0.05309486389160156 0.0049417573027312756 -0.13454358279705048 0.4033094048500061 0.1563473492860794 7.750969409942627 5.557330131530762 0.251312255859375 0.1399121880531311 0.006067071110010147 0.07843544334173203 3.073261022567749 1.046491265296936 0.21425001323223114 -0.1591450721025467 0.1851494461297989 -0.11800207942724228 10.365968704223633 0.635686993598938 0.00971101876348257 0.030474824830889702 -0.20314647257328033 0.1917765885591507 2.4395010471343994 -0.49541500210762024 -0.178324356675148 -0.11386905610561371 0.005257169716060162 0.06321078538894653 22.162742614746094 65.25042724609375 -103.5676498413086 27.791061401367188 -39.005157470703125 -82.32673645019531 10.562609672546387 -64.9640121459961 16.549333572387695 0.07181664556264877 -0.04271366819739342 -0.09019975364208221 0.046546418219804764 0.09140629321336746 -0.008413072675466537 0.1383858472108841 0.1954871118068695 -0.1158657893538475 -7.40725564956665 5.771895885467529 -0.19458329677581787 0.006990030873566866 -0.054184433072805405 -0.22604051232337952 -2.7671971321105957 0.8876489400863647 -0.1991826742887497 -0.0686289444565773 -0.1925993263721466 -0.05422664061188698 -10.379633903503418 0.9455596208572388 -0.10208942741155624 -0.19927215576171875 -0.08561071008443832 0.23533378541469574 -2.2037057876586914 -0.491590678691864 0.2796688973903656 0.06291365623474121 0.01895141787827015 -0.20893482863903046 -36.06391143798828 -42.59987258911133 -30.092391967773438 -0.04237113893032074 39.66697311401367 -0.24794767796993256 -3.045729637145996 32.57756042480469 3.107048988342285 -0.1598616987466812 -0.06358498334884644 -0.051874469965696335 23.579133987426758 -33.329429626464844 27.905378341674805 3.0049753189086914 72.15084075927734 -4.2344889640808105 10.365605354309082 -18.07203483581543 18.37993049621582
47.71832782948623 72.08680004755506 -277.10085749682185 -157.61056518554688 77.92515563964844 -134.445556640625 -1.8803579807281494 16.0241641998291 -2.3435113430023193 6.808095455169678 -10.465072631835938 -0.33128246665000916 -10.14130687713623 18.25998306274414 -13.961352348327637 13.150344848632812 -25.543912887573242 -24.22281265258789 0.25936359167099 0.002197335008531809 0.06871716678142548 0.14610756933689117 -0.15708141028881073 -0.24925357103347778 0.08227385580539703 -0.04583524912595749 -0.0964704304933548 48.55674362182617 19.2495059967041 34.436248779296875 -24.106441497802734 -49.75690460205078 102.86568450927734 -1.79151451587677 35.99419021606445 5.592408180236816 0.19905126094818115 -0.026439692825078964 0.16801097989082336 -0.2967900335788727 0.07266675680875778 -0.030081292614340782 -0.02316364273428917 0.5351911783218384 0.11778972297906876 7.818256855010986 5.565732002258301 0.23931726813316345 0.253469854593277 -0.05026930570602417 0.17883281409740448 3.0374279022216797 0.9691031575202942 0.2673722207546234 -0.13536928594112396 0.17050573229789734 -0.05827256292104721 10.390748977661133 0.5783728957176208 0.0029709499794989824 0.08685460686683655 -0.2190927267074585 0.20327790081501007 2.3602981567382812 -0.5562282800674438 -0.20698347687721252 -0.04497484490275383 -0.015912238508462906 0.041118524968624115 16.885465621948242 69.97171783447266 -97.20082092285156 27.69205093383789 -40.61837387084961 -85.12809753417969 13.543936729431152 -68.60322570800781 19.837230682373047 0.05047306790947914 -0.058443039655685425 -0.18826930224895477 0.08982391655445099 0.06874143332242966 0.005386839620769024 0.0637744590640068 0.18417005240917206 -0.16446815431118011 -7.391284465789795 5.797990322113037 -0.13700167834758759 0.02934560365974903 -0.06603392213582993 -0.3074755370616913 -2.8525278568267822 0.9130969047546387 -0.2622513771057129 -0.10512151569128036 -0.1481965333223343 -0.09071096777915955 -10.369857788085938 0.956790566444397 -0.10897468775510788 -0.17868518829345703 -0.10339386761188507 0.22510403394699097 -2.2447941303253174 -0.5351943969726562 0.2938946783542633 0.020129205659031868 0.013991515152156353 -0.07849355787038803 -35.876609802246094 -42.604286193847656 -29.493545532226562 0.012935648672282696 40.17877960205078 -0.44121628999710083 -3.4500746726989746 31.777225494384766 2.7227611541748047 -0.20522230863571167 -0.07944639027118683 -0.10364242643117905 24.01738929748535 -33.16851806640625 28.388914108276367 2.8876359462738037 72.34052276611328 -4.134295463562012 10.696598052978516 -18.53999900817871 18.18399429321289
